# xmcd
#
# Track frame offsets:
#	150
#	13495
#	25447
#	44667
#	58905
#	77600
#	88380
#	99352
#	115667
#	127635
#	139730
#	150747
#	162365
#	176057
#	187805
#	200075
#	209102
#	226952
#
# Disc length: 3202 seconds
# Revision: 5
# Processed by: cddbd v1.5.2PL0 Copyright (c) Steve Scherf et al.
# Submitted via: dBpowerAMP V12.0
#
DISCID=000c8012
DTITLE=Tammy Wynette - The Best of Tammy Wynette [Sony 1996]
DYEAR=1996
DGENRE=Country
TTITLE0=D-I-V-O-R-C-E
TTITLE1=There Goes My Everything
TTITLE2=Ode to Billy Joe
TTITLE3=No Charge (With Tina)
TTITLE4=Honey (I Miss You)
TTITLE5=Crying in the Chapel
TTITLE6=The Ways to Love a Man
TTITLE7=Sometimes When We Touch
TTITLE8=Stand by Your Man
TTITLE9=Help Me Make It Through the Night
TTITLE10=Hey Good Lookin'
TTITLE11=I Don't Want to Play House
TTITLE12=Crying in the Rain
TTITLE13=Another Lonely Song
TTITLE14=Funny Face
TTITLE15=Your Good Girl's Gonna Go Bad
TTITLE16=Please Come to Boston
TTITLE17=Apartment Number Nine
EXTD=
EXTT0=
EXTT1=
EXTT2=
EXTT3=
EXTT4=
EXTT5=
EXTT6=
EXTT7=
EXTT8=
EXTT9=
EXTT10=
EXTT11=
EXTT12=
EXTT13=
EXTT14=
EXTT15=
EXTT16=
EXTT17=
PLAYORDER=
